PathFileType	4	(X/Y/Z)	c:/Users/goper/Files/vsCode/490R/osim_files/A03/A03_Slow_03.trc
DataRate	CameraRate	NumFrames	NumMarkers	Units                	OrigDataRate	OrigDataStartFrame	OrigNumFrames
250.00	250.00	5	36	mm	250.0	2226	2967
                Frame#	Time	LPSIS			LASIS			LTH1			LTH2			LTH3			LTH4			LLFE			LMFE			LSH1			LSH2			LSH3			LSH4			LLMAL			LMMAL			LCAL			LMTP5			LTOE			LMTP1			RPSIS			RASIS			RTH1			RTH2			RTH3			RTH4			RLFE			RMFE			RSH1			RSH2			RSH3			RSH4			RLMAL			RMMAL			RCAL			RMTP1			RTOE			RMTP5		
		X1	Y1	Z1	X2	Y2	Z2	X3	Y3	Z3	X4	Y4	Z4	X5	Y5	Z5	X6	Y6	Z6	X7	Y7	Z7	X8	Y8	Z8	X9	Y9	Z9	X10	Y10	Z10	X11	Y11	Z11	X12	Y12	Z12	X13	Y13	Z13	X14	Y14	Z14	X15	Y15	Z15	X16	Y16	Z16	X17	Y17	Z17	X18	Y18	Z18	X19	Y19	Z19	X20	Y20	Z20	X21	Y21	Z21	X22	Y22	Z22	X23	Y23	Z23	X24	Y24	Z24	X25	Y25	Z25	X26	Y26	Z26	X27	Y27	Z27	X28	Y28	Z28	X29	Y29	Z29	X30	Y30	Z30	X31	Y31	Z31	X32	Y32	Z32	X33	Y33	Z33	X34	Y34	Z34	X35	Y35	Z35	X36	Y36	Z36

2226	8.90000	-2523.76099	1074.09412	290.05801	-2772.62183	992.23285	405.16290	-2756.91772	635.02991	431.46408	-2772.35742	595.65710	427.97559	-2814.81665	649.89545	409.82422	-2820.16699	606.42609	409.09201	-2764.57520	552.07928	418.68417	-2787.89209	552.95477	263.45258	-2722.74048	465.48019	413.32907	-2726.39209	417.52148	409.67032	-2785.52563	461.31479	408.66129	-2776.35742	413.85507	401.38339	-2733.49487	97.60023	363.13727	-2744.21509	106.69670	266.63333	-2664.56274	83.34934	308.42352	-2884.75293	46.25650	372.73029	-2913.21875	78.68563	305.77750	-2885.18359	57.77376	260.61243	-2522.26978	1079.82202	207.17433	-2766.29395	996.21417	106.64097	-2762.60352	638.38562	34.76342	-2766.78564	593.89221	38.27205	-2824.50122	638.82825	41.22426	-2821.68506	595.01276	44.10161	0.00000	0.00000	0.00000	-2817.19360	557.63373	178.75752	-2713.82788	545.52094	47.00781	-2685.16138	516.38623	34.19349	-2756.32153	496.69821	47.22729	-2715.56128	472.25513	35.29396	-2465.98877	295.62115	79.61846	0.00000	0.00000	0.00000	-2405.14673	320.54810	130.03465	-2487.36963	124.54729	188.10661	-2521.32446	110.44295	143.06091	-2477.47461	115.26053	73.50612
2227	8.90400	-2527.99707	1074.08215	290.10699	-2776.04468	992.48145	405.37619	-2758.99170	635.03979	431.62091	-2774.26660	595.62439	428.12372	-2816.39551	649.45959	409.66721	-2821.42822	605.90057	408.89627	-2766.39160	552.05591	418.80133	-2789.62622	552.85559	263.54968	-2724.22241	465.62549	413.42023	-2727.64868	417.67734	409.72974	-2787.33618	461.38837	409.91037	-2777.96582	413.89319	401.73672	-2733.55688	97.67107	363.09665	-2744.34326	106.73839	266.63916	-2664.63647	83.45242	308.38226	-2884.77979	46.18346	372.69971	-2913.32666	78.58765	305.76810	-2885.23804	57.67916	260.60190	-2526.95996	1079.57507	207.47890	-2770.29297	997.04114	106.91355	-2769.92969	639.67291	35.37099	-2774.44409	595.21381	38.86486	-2831.86353	640.60095	42.10807	-2829.27344	596.74335	44.96204	-2803.27197	571.61853	48.74075	-2824.50879	559.37250	179.66035	-2721.72607	546.71356	47.60839	-2693.19482	517.47235	34.69255	-2764.44775	498.02423	47.84891	-2725.37207	473.00003	36.11753	-2474.95801	295.52185	79.17514	0.00000	0.00000	0.00000	-2413.26733	319.75861	129.47644	-2497.82544	124.47886	187.28735	-2532.03345	110.94012	142.48460	-2488.13525	115.16283	72.71877
2228	8.90800	-2530.87231	1074.35876	290.33875	-2779.42334	992.70331	405.59189	-2760.98511	635.02240	431.80069	-2776.11621	595.55054	428.28098	-2819.10181	649.45813	410.31174	-2824.09790	605.94769	409.58087	-2768.13354	552.05414	418.90051	-2791.42920	552.83527	263.64310	-2725.68799	465.75946	413.47705	-2728.96802	417.77853	409.80020	-2788.77979	461.29794	410.00558	-2778.96216	413.82294	401.52374	-2733.61084	97.70699	363.09146	-2744.40503	106.76575	266.58051	-2664.70752	83.53599	308.33618	-2884.80176	46.12498	372.68317	-2913.37305	78.46927	305.77118	-2884.14600	57.17589	260.46890	-2529.50806	1080.18921	207.36182	-2774.30786	997.87103	107.16674	-2777.17822	640.92297	36.00274	-2782.77490	596.31104	39.45773	-2839.02930	642.36694	42.93357	-2836.85010	598.51550	45.82491	-2810.94629	573.03479	49.51612	-2831.69092	561.04810	180.51369	-2729.46289	547.84131	48.24092	-2701.17944	518.39410	35.21555	-2772.50293	499.32278	48.47397	-2732.05420	474.62848	36.35509	-2483.97363	295.16922	78.77669	0.00000	0.00000	0.00000	-2421.65063	318.70438	128.89043	-2508.74438	124.54319	186.35141	-2542.87720	111.23006	141.91071	-2499.34668	115.30769	72.06275
2229	8.91200	-2535.79517	1074.32690	290.55011	-2782.80396	992.88641	405.83740	-2763.72021	635.80048	431.78403	-2777.94946	595.48450	428.43170	-2821.19678	649.24701	410.55557	-2825.30127	605.41943	409.34125	-2769.84204	552.06213	418.97748	-2793.14429	552.76141	263.73419	-2727.66406	465.90726	413.48044	-2730.40503	417.98615	409.77246	-2789.29468	460.82703	408.68375	-2780.19360	413.73947	401.55225	-2733.64355	97.75641	363.05923	-2744.52368	106.80993	266.54337	-2664.77344	83.61705	308.31348	-2884.84668	46.08855	372.68695	-2913.44800	78.35744	305.76208	-2884.18799	57.07984	260.45587	-2533.38745	1080.35938	207.54132	-2778.39673	998.71130	107.40421	-2784.28882	642.11517	36.55867	-2789.50317	597.78339	40.11376	-2846.18091	644.15686	43.71347	-2844.59814	600.11194	47.07056	0.00000	0.00000	0.00000	-2839.96753	562.97766	181.81859	-2737.21997	548.87915	48.85492	-2710.02222	519.10736	35.71656	-2780.63428	500.64972	49.11003	-2740.24268	475.65707	36.87916	-2493.09351	294.63507	78.37838	0.00000	0.00000	0.00000	-2430.24658	317.44324	128.35158	-2519.39038	124.13541	185.78888	-2554.27979	111.70084	141.09785	-2510.41284	115.03403	71.37582
2230	8.91600	-2539.32495	1074.53369	290.67221	-2786.22607	993.10175	406.11816	-2764.99170	635.01477	432.15137	-2779.76685	595.43671	428.61005	-2822.67212	648.76874	410.40204	-2827.88135	605.45465	410.01498	-2771.57568	552.05444	419.08691	-2794.87354	552.68787	263.81860	-2728.57959	465.99774	413.61459	-2731.43311	418.05991	409.90433	-2790.64282	460.57184	409.31302	-2781.37158	413.62857	401.60571	-2733.68555	97.79829	362.97321	-2744.95996	107.17197	266.27716	-2664.82764	83.71128	308.23773	-2884.84692	46.00802	372.67938	-2913.14673	77.88973	305.53867	-2883.75024	56.63297	260.29868	-2536.98047	1080.51392	207.63914	-2782.44653	999.51862	107.64741	-2791.29590	643.37335	37.08655	-2796.83179	599.01233	40.76168	-2853.18799	645.86597	44.49608	-2851.85107	601.78406	47.88707	-2818.77539	567.15454	55.91634	-2845.58545	563.96191	182.28131	-2745.77979	549.64050	49.38713	-2716.92822	520.13269	36.22303	-2788.57568	501.90729	49.69001	-2750.02808	476.39328	37.58821	-2502.31079	293.92548	78.01460	0.00000	0.00000	0.00000	-2438.92822	315.93216	127.85535	-2529.88501	123.21917	185.31438	-2565.04370	111.55400	140.58038	-2521.64624	114.56688	70.72755
